# xmcd CD database file
#
# Track frame offsets:
#	150
#	21112
#	38925
#	58667
#
# Disc length: 1006 seconds
#
# Revision: 0
# Processed by: cddbd v1.4PL0 Copyright (c) Steve Scherf et al.
# Submitted via: CDex 1.51
#
DISCID=2d03ec04
DTITLE=Nicco - Salina
DYEAR=1996
DGENRE=Jazz
TTITLE0=Salina
TTITLE1=Nitelow
TTITLE2=Signing Off (the times with you)
TTITLE3=Do You Want To Know
EXTD=YEAR: 1996
EXTT0=
EXTT1=
EXTT2=
EXTT3=
PLAYORDER=
